<svg width="43" height="43" viewBox="0 0 43 43" fill="none" xmlns="http://www.w3.org/2000/svg">
<path fill-rule="evenodd" clip-rule="evenodd" d="M21.5 43C33.3741 43 43 33.3741 43 21.5C43 9.62588 33.3741 0 21.5 0C9.62588 0 0 9.62588 0 21.5C0 33.3741 9.62588 43 21.5 43ZM30.7144 29.4858L30.7144 18.4286C30.7144 17.7501 30.1644 17.2 29.4859 17.2C28.8073 17.2 28.2573 17.7501 28.2573 18.4286V26.5197L14.3832 12.6456C13.9034 12.1658 13.1255 12.1658 12.6457 12.6456C12.1659 13.1254 12.1659 13.9033 12.6457 14.3831L26.5198 28.2572H18.4287C17.7502 28.2572 17.2001 28.8072 17.2001 29.4858C17.2001 30.1643 17.7502 30.7143 18.4287 30.7143L29.4859 30.7143C30.1644 30.7143 30.7144 30.1643 30.7144 29.4858Z" fill="white"/>
</svg>
