<svg width="68" height="58" viewBox="0 0 68 58" fill="none" xmlns="http://www.w3.org/2000/svg">
<path d="M52.0963 23.7677C53.7937 26.7077 54.6965 29.7521 54.8045 32.9008C54.9126 36.0495 54.2519 39.0583 52.8222 41.9271C51.4057 44.7466 49.3334 47.1525 46.6052 49.1446L50.1265 55.2436L45.435 57.9523L41.9137 51.8533C38.775 53.2067 35.6307 53.7918 32.4807 53.6087C29.3126 53.3944 26.3922 52.4532 23.7194 50.7853C21.0466 49.1173 18.8705 46.8289 17.1911 43.9202C15.3673 40.7612 14.4656 37.466 14.4862 34.0345C14.538 30.5849 15.4779 27.3733 17.3058 24.3997C19.1156 21.3947 21.6782 18.9352 24.9936 17.0211C28.2776 15.125 31.6733 14.1445 35.1806 14.0796C38.6698 13.9835 41.9054 14.7843 44.8874 16.4823C47.8514 18.149 50.2544 20.5774 52.0963 23.7677ZM44.0069 45.0775C45.8906 43.5729 47.3049 41.7971 48.25 39.7502C49.177 37.672 49.5793 35.4797 49.4571 33.1732C49.3168 30.8355 48.6326 28.6032 47.4047 26.4763C46.0323 24.0993 44.2324 22.2818 42.0049 21.024C39.7906 19.7169 37.3979 19.0757 34.8267 19.1006C32.2555 19.1255 29.7813 19.8242 27.4043 21.1966C24.9959 22.587 23.1226 24.3984 21.7841 26.6307C20.477 28.845 19.8202 31.2468 19.8138 33.836C19.8207 36.376 20.5103 38.8344 21.8827 41.2115C23.1106 43.3383 24.6771 45.0403 26.5821 46.3175C28.5004 47.5453 30.5912 48.2774 32.8544 48.5137C35.1177 48.75 37.3718 48.4287 39.6166 47.5496L35.1473 39.8085L39.5105 37.2895L44.0069 45.0775Z" fill="#D9E6DC"/>
<path fill-rule="evenodd" clip-rule="evenodd" d="M17.7687 42.4485C17.3347 41.3426 18.301 38.753 14.6563 40.1832C11.0117 41.6135 10.5251 44.4855 10.9591 45.5914C11.393 46.6973 13.703 48.4719 17.3477 47.0417C20.9924 45.6114 18.2027 43.5544 17.7687 42.4485ZM20.4774 41.5817C18.6412 36.9027 18.2477 32.9544 12.6774 35.1403C7.10712 37.3262 4.07999 42.8913 5.91612 47.5703C7.75225 52.2494 13.7563 54.2705 19.3266 52.0846C24.8969 49.8987 22.3135 46.2608 20.4774 41.5817Z" fill="#D9E6DC"/>
<path fill-rule="evenodd" clip-rule="evenodd" d="M18.4816 25.9952C18.9283 24.8945 18.475 22.017 14.8472 20.5447C11.2193 19.0723 8.88892 20.8201 8.44218 21.9209C7.99544 23.0216 8.44874 25.8991 12.0766 27.3714C15.7045 28.8438 18.0348 27.096 18.4816 25.9952ZM20.0442 27.3714C21.9343 22.714 22.429 17.7752 16.8844 15.525C11.3398 13.2747 5.31266 15.2262 3.42248 19.8837C1.5323 24.5411 4.4948 30.1409 10.0394 32.3912C15.584 34.6414 18.154 32.0289 20.0442 27.3714Z" fill="#D9E6DC"/>
<path fill-rule="evenodd" clip-rule="evenodd" d="M32.5782 17.5608C33.7489 17.3592 35.9536 15.4554 35.2892 11.5969C34.6248 7.73846 31.9103 6.68169 30.7395 6.88329C29.5688 7.08489 27.3641 8.98874 28.0285 12.8472C28.6929 16.7056 31.4074 17.7624 32.5782 17.5608ZM33.3745 18.8278C38.328 17.9748 41.6434 16.5746 40.628 10.6776C39.6125 4.78055 34.7737 0.69154 29.8202 1.54452C24.8667 2.39751 21.6743 7.86948 22.6897 13.7665C23.7052 19.6636 28.4209 19.6808 33.3745 18.8278Z" fill="#D9E6DC"/>
<path fill-rule="evenodd" clip-rule="evenodd" d="M48.7325 22.3574C49.5351 23.2333 49.9641 26.2709 52.8508 23.6259C55.7375 20.9809 55.1589 18.1259 54.3564 17.25C53.5538 16.3741 50.7602 15.5487 47.8735 18.1937C44.9868 20.8388 47.93 21.4815 48.7325 22.3574ZM47.6472 23.9411C51.0429 27.6471 52.0987 31.6625 56.5106 27.6201C60.9225 23.5776 61.7462 17.2962 58.3506 13.5903C54.9549 9.88429 48.6256 10.1571 44.2138 14.1996C39.8019 18.242 44.2515 20.2351 47.6472 23.9411Z" fill="#D9E6DC"/>
<path fill-rule="evenodd" clip-rule="evenodd" d="M52.6219 39.6501C52.2236 40.7693 51.028 42.8319 54.2281 43.9708C57.4282 45.1098 59.4928 43.1954 59.8911 42.0762C60.2895 40.957 59.8986 38.1687 56.6985 37.0297C53.4983 35.8908 53.0202 38.5309 52.6219 39.6501ZM50.3023 39.0426C48.617 43.7781 46.4045 46.9366 52.4117 49.0746C57.3026 50.8152 62.6337 48.3875 64.319 43.652C66.0044 38.9166 63.4058 33.6667 58.5149 31.926C51.0687 29.2759 51.9877 34.3072 50.3023 39.0426Z" fill="#D9E6DC"/>
</svg>
